<?xml version="1.0" encoding="UTF-8"?>
<svg id="Capa_1" data-name="Capa 1" xmlns="http://www.w3.org/2000/svg" version="1.1" viewBox="0 0 612 792">
  <defs>
    <style>
      .cls-1 {
        fill: #fff;
        stroke-width: 0px;
      }
    </style>
  </defs>
  <path class="cls-1" d="M106.2,248.31c52.67-1.36,105.35-2.72,158.02-4.08,2.17-.06,3.96,1.69,3.96,3.86v43.71c0,2.13-1.73,3.86-3.86,3.86H122.28c-2.41,0-4.83.61-6.76,2.04-4.83,3.59-5.97,9.65-3.59,14.42l.13.26c1.72,3.45,6.29,6.27,10.14,6.27h123.68c10.03,0,19.24,5.38,24.25,14.07,13.17,22.87,33.68,69.84,14.7,116.73-5.53,13.66-12.78,26.23-19.49,35.89-7.36,10.59-16.91,19.42-27.98,26.05-27.88,16.71-47.86,18.03-58.61,18.09-1.32,0-12.43.23-13.75.29-12.42.62-56.95,2.73-89.91-30.98-13.03-13.33-22.9-32.97-25.47-61.77-.13-1.42.99-2.66,2.41-2.7l60.28-1.46c1.38-.03,2.59.92,2.85,2.28,1.87,10,12.78,48.15,69.4,38.48,59.5-10.16,57.23-65.48,41.22-92.4-2.46-4.14-6.88-6.71-11.69-6.78l-102.92-1.48c-.22,0-.41-.02-.63-.06-5.6-1.04-32.38-6.79-47.66-31.78-2.41-3.94-10.4-17.41-9.51-35.41,1.13-22.95,16.02-39.14,27.48-48.29,7.2-5.75,16.15-8.86,25.36-9.1Z"/>
  <path class="cls-1" d="M358.28,477.49h-61.89c-1.14,0-2.05.93-2.01,2.07.19,5.24,1.74,17.92,12.2,27.52.59.54,1.18,1.05,1.77,1.53,11.02,8.88,26.98,9.12,38.35.69,2.93-2.17,5.75-4.98,8.12-8.63,5.43-8.37,5.72-16.95,5.47-21.29-.06-1.07-.94-1.88-2.01-1.88Z"/>
  <path class="cls-1" d="M49.94,424.86h61.89c1.14,0,2.05-.93,2.01-2.07-.19-5.24-1.74-17.92-12.2-27.52-.59-.54-1.18-1.05-1.77-1.53-11.02-8.88-26.98-9.12-38.35-.69-2.93,2.17-5.75,4.98-8.12,8.63-5.43,8.37-5.72,16.95-5.47,21.29.06,1.07.94,1.88,2.01,1.88Z"/>
  <path class="cls-1" d="M566.79,469.27h-61.89c-1.14,0-2.05.93-2.01,2.07.19,5.24,1.74,17.92,12.2,27.52.59.54,1.18,1.05,1.77,1.53,11.02,8.88,26.98,9.12,38.35.69,2.93-2.17,5.75-4.98,8.12-8.63,5.43-8.37,5.72-16.95,5.47-21.29-.06-1.07-.94-1.88-2.01-1.88Z"/>
  <path class="cls-1" d="M412.02,354.45l-.17-25.7c0-.14,0,0,0-.14.32-22.83-14.06-30.95-21.66-33.68-2.38-.85-4.88-1.26-7.41-1.26h-60.28c-1.67,0-3.03-1.36-3.03-3.03v-39.56c0-2.71,2.2-4.91,4.51-4.91l106.48.03h0c4.29.73,39.53,8.31,39.53,61.89v49.72c0,2.03,1.51,3.73,3.53,3.94,17.19,1.79,91.36,14.31,93.05,97.42.02,1.15-.91,2.1-2.06,2.1h-61.43c-.99,0-1.89-.54-2.36-1.41-3.64-6.56-10.2-16.29-21.23-24.86-22.48-17.44-47.07-17.27-53.8-16.97-52.21,2.31-63.22,39.02-65.24,48.84-.29,1.41-1.53,2.4-2.96,2.4h-61.3c-1,0-1.82-.81-1.83-1.81-.04-10.27,1.95-53.56,38.58-82.26,27.29-21.38,58.12-25.34,72.15-24.22,3.77.3,6.96-2.75,6.94-6.53Z"/>
  <rect class="cls-1" x="276.03" y="245.58" width="36.69" height="49.54" rx="1.07" ry="1.07"/>
</svg>